<?xml version="1.0" standalone="no"?>
<!DOCTYPE svg PUBLIC "-//W3C//DTD SVG 20010904//EN"
 "http://www.w3.org/TR/2001/REC-SVG-20010904/DTD/svg10.dtd">
<svg version="1.0" xmlns="http://www.w3.org/2000/svg"
 width="866.000000pt" height="650.000000pt" viewBox="0 0 866.000000 650.000000"
 preserveAspectRatio="xMidYMid meet">

<g transform="translate(0.000000,650.000000) scale(0.100000,-0.100000)"
fill="#000000" stroke="none">
<path d="M5222 5555 c-239 -43 -470 -170 -643 -352 -160 -168 -265 -375 -304
-601 -18 -101 -19 -282 -4 -387 6 -42 9 -78 6 -81 -8 -9 -229 15 -387 42 -538
90 -1052 319 -1497 665 -119 94 -339 302 -446 424 -39 44 -74 82 -79 83 -13 6
-84 -153 -112 -249 -74 -257 -57 -557 45 -793 84 -192 224 -367 394 -493 l30
-22 -25 -1 c-98 -1 -332 60 -440 115 -27 14 -52 25 -55 25 -10 0 -5 -120 10
-206 75 -430 386 -789 795 -919 47 -15 92 -29 100 -32 9 -4 -9 -12 -40 -21
-60 -16 -369 -23 -428 -10 -31 7 -33 6 -27 -15 17 -54 97 -210 144 -281 166
-246 433 -425 726 -487 49 -10 104 -19 121 -19 17 0 45 -3 63 -6 l31 -6 -46
-35 c-218 -167 -528 -314 -819 -388 -222 -57 -331 -69 -603 -70 -133 0 -242
-1 -242 -2 0 -6 185 -111 279 -158 231 -116 480 -207 725 -265 711 -170 1519
-97 2170 196 968 435 1672 1349 1885 2444 36 183 52 339 58 556 l6 212 76 58
c112 86 325 304 414 422 42 57 77 107 77 112 0 5 -24 -2 -52 -14 -127 -56
-499 -156 -581 -156 -11 0 13 24 60 59 143 108 229 201 312 339 48 80 116 230
108 238 -2 2 -55 -23 -118 -55 -169 -88 -318 -145 -502 -191 l-111 -28 -73 63
c-180 158 -372 252 -587 290 -107 18 -312 18 -414 0z"/>
</g>
</svg>
